# xmcd
#
# Track frame offsets: 
#        150
#        8428
#        20423
#        28987
#        37921
#        47143
#        64221
#        76811
#        89354
#        99456
#        110849
#        121602
#        136155
#        152021
#        159335
#        171265
#
# Disc length: 2406 seconds
#
# Revision: 0
# Processed by: cddbd v1.5.2PL0 Copyright (c) Steve Scherf et al.
# Submitted via: ExactAudioCopy v0.99pb5
#
DISCID=bc096410
DTITLE=Канцлер Ги - Tample Memories
DYEAR=1900
DGENRE=Ballad
TTITLE0=Тамплиерская камерная
TTITLE1=Terra Sancta 1
TTITLE2=Тамплиерская стебная
TTITLE3=Дорога
TTITLE4=1313
TTITLE5=Ангел
TTITLE6=Песенка сожженного магистра
TTITLE7=Jaques de Moley
TTITLE8=Guillaume de Nogaret
TTITLE9=Песенка хранителя печати
TTITLE10=Песня первого менестреля
TTITLE11=Песенка Атори
TTITLE12=Крестоносцы
TTITLE13=Святой Доминик
TTITLE14=Monforica
TTITLE15=Рок-н-ролл Совершенных
EXTD=
EXTT0=
EXTT1=
EXTT2=
EXTT3=
EXTT4=
EXTT5=
EXTT6=
EXTT7=
EXTT8=
EXTT9=
EXTT10=
EXTT11=
EXTT12=
EXTT13=
EXTT14=
EXTT15=
PLAYORDER=
